<?xml version="1.0" encoding="UTF-8" standalone="no"?>
<!DOCTYPE svg PUBLIC "-//W3C//DTD SVG 1.1//EN"
"http://www.w3.org/Graphics/SVG/1.1/DTD/svg11.dtd">
<svg width="024px" height="024px"
xmlns="http://www.w3.org/2000/svg" version="1.1">
<g transform="translate(0000, 0000) scale(1.0000, 1.0000)">
<path fill="#000000" stroke="none" d="
M 10.84 22.89
C 10.71 22.56 11.30 18.90 11.56 18.43
C 11.83 17.92 12.36 18.14 12.57 18.85
C 12.80 19.63 13.09 21.41 13.13 22.31
L 13.15 23.00
L 12.04 23.04
C 11.21 23.08 10.90 23.04 10.84 22.89"/>
<path fill="#000000" stroke="none" d="
M 3.66 16.54
C 2.18 16.13 1.13 15.29 0.42 13.94
C -0.06 13.03 -0.05 10.96 0.43 10.04
C 1.18 8.62 2.36 7.74 4.00 7.39
C 4.52 7.28 5.86 7.23 7.46 7.26
L 10.08 7.31
L 10.08 8.62
L 10.08 9.92
L 7.00 10.00
C 4.40 10.06 3.86 10.12 3.53 10.35
C 2.42 11.10 2.42 12.90 3.53 13.65
C 3.86 13.88 4.40 13.94 7.00 14.00
L 10.08 14.08
L 10.08 15.38
L 10.08 16.69
L 7.23 16.72
C 5.28 16.74 4.16 16.68 3.66 16.54"/>
<path fill="#000000" stroke="none" d="
M 13.91 16.56
C 13.87 16.45 13.85 15.84 13.88 15.22
L 13.92 14.08
L 17.00 14.00
C 20.34 13.92 20.62 13.84 21.09 12.98
C 21.55 12.12 21.26 10.88 20.47 10.35
C 20.14 10.12 19.60 10.06 17.00 10.00
L 13.92 9.92
L 13.92 8.62
L 13.92 7.31
L 16.54 7.26
C 18.14 7.23 19.48 7.28 20.00 7.39
C 21.64 7.74 22.82 8.62 23.57 10.04
C 24.05 10.96 24.06 13.03 23.58 13.94
C 22.85 15.32 21.82 16.14 20.27 16.55
C 19.14 16.85 14.02 16.86 13.91 16.56"/>
<path fill="#000000" stroke="none" d="
M 11.55 5.56
C 11.30 5.10 10.72 1.44 10.84 1.12
C 10.95 0.84 13.06 0.85 13.17 1.13
C 13.27 1.39 12.65 5.18 12.45 5.56
C 12.25 5.93 11.75 5.93 11.55 5.56"/>
</g>
</svg>
