<?xml version="1.0" encoding="UTF-8" standalone="no"?>
<!DOCTYPE svg PUBLIC "-//W3C//DTD SVG 1.1//EN"
"http://www.w3.org/Graphics/SVG/1.1/DTD/svg11.dtd">
<svg width="064px" height="064px"
xmlns="http://www.w3.org/2000/svg" version="1.1">
<g transform="translate(0000, 0000) scale(1.0000, 1.0000)">
<path fill="#c4fe00" stroke="none" d="
M 20.38 51.82
C 16.89 51.14 13.91 50.54 13.77 50.48
C 13.60 50.41 13.90 50.25 14.56 50.04
C 15.14 49.86 15.68 49.76 15.77 49.81
C 15.85 49.86 18.59 50.40 21.86 51.02
C 27.26 52.04 27.80 52.17 27.85 52.51
C 27.89 52.76 27.78 52.90 27.49 52.98
C 26.97 53.12 27.70 53.24 20.38 51.82"/>
<path fill="#c4fe00" stroke="none" d="
M 14.48 12.88
C 13.85 12.68 13.59 12.52 13.77 12.45
C 14.43 12.17 27.14 9.86 27.50 9.95
C 27.78 10.03 27.89 10.17 27.85 10.42
C 27.80 10.75 27.27 10.89 21.90 11.90
C 18.65 12.52 15.88 13.06 15.73 13.11
C 15.58 13.15 15.02 13.05 14.48 12.88"/>
<path fill="#00ff4b" stroke="none" d="
M 27.84 52.43
C 27.78 52.16 27.75 51.93 27.77 51.93
C 27.94 51.92 29.91 50.87 30.08 50.70
C 30.20 50.58 31.83 49.69 33.70 48.72
C 35.57 47.75 37.13 46.93 37.18 46.89
C 37.39 46.71 36.63 46.52 33.44 45.95
C 30.13 45.36 30.04 45.33 30.35 45.01
C 30.83 44.54 31.82 44.58 35.22 45.21
C 39.02 45.92 38.97 45.91 38.97 46.19
C 38.97 46.33 39.10 46.54 39.25 46.67
C 39.49 46.87 39.27 47.03 37.69 47.85
C 36.68 48.37 35.77 48.90 35.67 49.04
C 35.57 49.17 35.17 49.34 34.78 49.42
C 33.66 49.63 31.61 50.80 31.88 51.07
C 31.95 51.13 34.27 50.67 37.05 50.03
C 41.59 48.98 42.12 48.89 42.31 49.15
C 42.48 49.37 42.47 49.46 42.22 49.56
C 42.06 49.63 38.90 50.38 35.22 51.23
C 31.53 52.07 28.38 52.80 28.22 52.84
C 28.02 52.90 27.90 52.78 27.84 52.43"/>
<path fill="#00ff4b" stroke="none" d="
M 30.99 18.27
C 30.46 18.23 30.22 18.13 30.17 17.90
C 30.09 17.62 30.47 17.51 33.47 16.97
C 36.63 16.40 37.39 16.21 37.18 16.04
C 37.13 16.00 35.57 15.17 33.70 14.21
C 31.83 13.24 30.17 12.32 30.00 12.17
C 29.84 12.02 29.26 11.69 28.72 11.44
C 27.83 11.04 27.74 10.95 27.84 10.55
C 27.89 10.30 27.95 10.08 27.97 10.06
C 28.00 10.01 42.37 13.35 42.45 13.43
C 42.49 13.47 42.42 13.63 42.31 13.78
C 42.12 14.04 41.59 13.95 37.05 12.90
C 34.27 12.26 31.95 11.79 31.88 11.86
C 31.61 12.13 33.66 13.30 34.78 13.51
C 35.17 13.58 35.57 13.75 35.67 13.89
C 35.77 14.02 36.68 14.56 37.69 15.08
C 39.27 15.90 39.49 16.06 39.25 16.26
C 39.10 16.39 38.97 16.60 38.97 16.73
C 38.97 16.87 38.79 17.02 38.57 17.07
C 38.23 17.15 32.81 18.15 32.00 18.28
C 31.85 18.30 31.40 18.30 30.99 18.27"/>
<path fill="#78ff00" stroke="none" d="
M 23.18 50.06
C 19.93 49.41 17.96 48.94 17.86 48.78
C 17.37 48.03 17.59 47.92 23.02 46.20
C 28.04 44.61 28.27 44.55 28.78 44.81
C 29.08 44.96 29.32 45.13 29.32 45.20
C 29.32 45.26 27.28 45.96 24.80 46.74
C 22.32 47.51 20.23 48.20 20.16 48.26
C 20.08 48.33 22.25 48.80 24.98 49.33
C 27.71 49.85 30.02 50.35 30.11 50.44
C 30.39 50.69 29.65 51.12 28.96 51.10
C 28.62 51.09 26.01 50.63 23.18 50.06"/>
<path fill="#78ff00" stroke="none" d="
M 21.54 35.73
C 21.05 34.03 20.62 32.53 20.59 32.41
C 20.55 32.26 20.72 32.18 21.07 32.18
C 21.66 32.18 21.52 31.84 22.63 35.75
C 23.13 37.55 23.35 38.09 23.66 38.29
C 23.94 38.47 23.73 38.62 23.03 38.73
L 22.42 38.83
L 21.54 35.73"/>
<path fill="#78ff00" stroke="none" d="
M 20.61 30.44
C 21.24 28.21 22.40 24.21 22.42 24.18
C 22.44 24.16 22.74 24.19 23.10 24.25
L 23.74 24.35
L 23.42 24.91
C 23.24 25.22 22.88 26.24 22.62 27.17
C 21.53 31.06 21.67 30.75 21.06 30.75
C 20.63 30.75 20.54 30.68 20.61 30.44"/>
<path fill="#78ff00" stroke="none" d="
M 29.36 18.67
C 29.23 18.53 28.95 18.41 28.73 18.41
C 28.51 18.41 25.96 17.66 23.06 16.74
C 17.59 15.00 17.37 14.89 17.86 14.14
C 18.01 13.90 28.17 11.80 29.14 11.81
C 29.69 11.81 30.35 12.27 30.11 12.49
C 30.02 12.58 27.71 13.08 24.98 13.60
C 22.25 14.12 20.08 14.60 20.16 14.66
C 20.37 14.84 29.55 17.70 29.90 17.70
C 30.09 17.70 30.21 17.83 30.21 18.03
C 30.21 18.21 30.07 18.48 29.90 18.64
C 29.63 18.88 29.55 18.88 29.36 18.67"/>
<path fill="#00ff7d" stroke="none" d="
M 31.82 51.01
C 31.82 50.95 31.96 50.79 32.13 50.65
C 32.99 49.97 34.38 49.50 37.76 48.72
C 40.79 48.02 41.52 47.91 41.74 48.09
C 41.89 48.21 42.01 48.44 42.01 48.60
C 42.01 48.84 41.05 49.11 37.05 50.02
C 31.92 51.19 31.82 51.20 31.82 51.01"/>
<path fill="#00ff7d" stroke="none" d="
M 30.07 44.45
C 29.74 44.27 29.70 44.18 29.89 44.03
C 30.24 43.76 42.16 39.72 43.02 39.59
C 43.68 39.48 43.78 39.51 43.89 39.86
C 43.95 40.08 43.97 40.29 43.93 40.33
C 43.89 40.37 41.25 41.30 38.06 42.38
C 34.88 43.47 32.24 44.42 32.18 44.49
C 32.02 44.73 30.50 44.70 30.07 44.45"/>
<path fill="#00ff7d" stroke="none" d="
M 42.64 23.29
C 41.88 23.12 30.11 19.07 29.96 18.93
C 29.87 18.85 29.90 18.67 30.03 18.50
C 30.20 18.30 30.53 18.23 31.18 18.26
C 31.68 18.28 32.13 18.36 32.18 18.43
C 32.24 18.51 34.88 19.46 38.06 20.55
C 41.25 21.63 43.89 22.55 43.93 22.60
C 43.97 22.64 43.96 22.84 43.89 23.05
C 43.78 23.42 43.44 23.48 42.64 23.29"/>
<path fill="#00ff7d" stroke="none" d="
M 37.45 14.14
C 34.14 13.35 32.99 12.94 32.10 12.25
C 31.91 12.10 31.81 11.93 31.88 11.86
C 31.94 11.79 34.25 12.26 37.00 12.89
C 42.12 14.06 42.42 14.18 41.80 14.80
C 41.50 15.10 41.46 15.09 37.45 14.14"/>
<path fill="#ffe700" stroke="none" d="
M 12.84 50.27
C 12.55 50.15 12.56 50.12 12.85 49.72
C 13.18 49.29 15.40 48.45 16.23 48.45
C 16.46 48.45 16.88 48.32 17.17 48.17
C 17.62 47.94 17.70 47.94 17.70 48.16
C 17.70 48.30 17.74 48.53 17.80 48.67
C 17.87 48.86 17.33 49.11 15.61 49.67
C 14.35 50.08 13.28 50.41 13.23 50.40
C 13.18 50.40 13.00 50.33 12.84 50.27"/>
<path fill="#ffe700" stroke="none" d="
M 6.79 31.46
L 6.79 30.75
L 13.68 30.75
L 20.56 30.75
L 20.56 31.46
L 20.56 32.18
L 13.68 32.18
L 6.79 32.18
L 6.79 31.46"/>
<path fill="#ffe700" stroke="none" d="
M 16.98 14.66
C 16.83 14.56 16.51 14.48 16.27 14.48
C 15.36 14.47 13.18 13.64 12.84 13.18
C 12.52 12.74 12.52 12.73 12.94 12.62
C 13.21 12.56 14.19 12.79 15.58 13.25
C 16.80 13.65 17.80 13.99 17.83 14.01
C 17.85 14.03 17.82 14.23 17.76 14.44
C 17.65 14.87 17.41 14.93 16.98 14.66"/>
<path fill="#ee7100" stroke="none" d="
M 8.09 46.54
C 4.67 43.76 3.80 42.97 3.96 42.79
C 4.24 42.45 4.95 42.49 5.32 42.86
C 5.49 43.03 7.30 44.53 9.34 46.18
C 11.38 47.84 13.05 49.23 13.05 49.28
C 13.05 49.47 12.67 50.06 12.55 50.05
C 12.48 50.05 10.47 48.47 8.09 46.54"/>
<path fill="#ee7100" stroke="none" d="
M 7.00 36.60
C 6.24 34.04 5.72 31.94 5.72 31.46
C 5.72 30.99 6.24 28.89 7.00 26.32
L 8.28 21.99
L 8.79 21.99
C 9.07 21.99 9.30 22.05 9.30 22.14
C 9.30 22.22 8.73 24.18 8.04 26.50
C 7.36 28.81 6.79 31.05 6.79 31.46
C 6.79 31.88 7.36 34.11 8.04 36.43
C 8.73 38.75 9.30 40.71 9.30 40.79
C 9.30 40.87 9.07 40.94 8.79 40.94
L 8.28 40.94
L 7.00 36.60"/>
<path fill="#ee7100" stroke="none" d="
M 3.96 20.14
C 3.80 19.95 4.61 19.21 7.81 16.61
C 12.99 12.40 12.51 12.74 12.81 13.15
C 12.94 13.33 13.05 13.53 13.05 13.60
C 13.05 13.67 11.38 15.09 9.34 16.74
C 7.30 18.40 5.49 19.90 5.32 20.07
C 4.95 20.44 4.24 20.48 3.96 20.14"/>
<path fill="#00abff" stroke="none" d="
M 42.41 49.29
C 42.26 49.09 41.65 47.91 41.65 47.81
C 41.65 47.79 42.21 47.66 42.90 47.54
C 43.94 47.36 44.38 47.15 45.51 46.36
C 46.80 45.44 48.19 44.73 48.36 44.91
C 48.41 44.95 48.49 45.23 48.55 45.54
C 48.66 46.05 48.61 46.11 47.88 46.44
C 47.45 46.63 46.36 47.28 45.45 47.89
C 43.46 49.24 42.66 49.60 42.41 49.29"/>
<path fill="#00abff" stroke="none" d="
M 48.45 41.57
C 48.20 41.44 47.15 41.16 46.12 40.94
C 45.09 40.73 44.19 40.50 44.12 40.43
C 44.06 40.37 43.95 40.10 43.89 39.85
C 43.79 39.46 43.84 39.36 44.17 39.28
C 44.40 39.22 44.67 39.28 44.82 39.43
C 44.96 39.57 45.10 39.69 45.13 39.69
C 45.16 39.69 46.09 39.89 47.19 40.14
C 48.69 40.48 49.29 40.70 49.52 40.99
C 49.81 41.34 49.81 41.39 49.54 41.60
C 49.17 41.88 49.00 41.88 48.45 41.57"/>
<path fill="#00abff" stroke="none" d="
M 38.26 31.46
L 38.26 30.75
L 45.40 30.75
C 52.38 30.75 52.54 30.76 52.65 31.11
C 52.71 31.30 52.71 31.62 52.65 31.82
C 52.54 32.17 52.38 32.18 45.40 32.18
L 38.26 32.18
L 38.26 31.46"/>
<path fill="#00abff" stroke="none" d="
M 44.10 23.65
C 43.84 23.58 43.79 23.46 43.88 23.09
C 43.95 22.83 44.06 22.56 44.12 22.50
C 44.19 22.43 45.08 22.20 46.10 21.99
C 47.12 21.78 48.22 21.48 48.54 21.32
C 49.04 21.08 49.17 21.08 49.48 21.30
C 49.83 21.54 49.83 21.56 49.52 21.94
C 49.29 22.23 48.75 22.44 47.53 22.70
C 45.43 23.17 44.69 23.40 44.69 23.61
C 44.69 23.78 44.63 23.79 44.10 23.65"/>
<path fill="#00abff" stroke="none" d="
M 47.43 17.78
C 47.11 17.64 46.24 17.09 45.50 16.57
C 44.38 15.77 43.93 15.57 42.90 15.39
C 42.21 15.26 41.65 15.14 41.65 15.12
C 41.65 15.01 42.26 13.84 42.41 13.64
C 42.66 13.32 43.46 13.69 45.45 15.04
C 46.36 15.65 47.44 16.30 47.86 16.48
C 48.64 16.83 48.70 16.94 48.51 17.65
C 48.39 18.11 48.23 18.13 47.43 17.78"/>
<path fill="#ffd300" stroke="none" d="
M 16.19 48.21
C 16.25 48.06 15.05 46.96 13.02 45.30
C 11.22 43.84 9.60 42.51 9.40 42.35
C 9.06 42.07 9.07 42.05 9.71 41.84
C 10.31 41.65 10.41 41.66 10.69 41.97
C 11.06 42.39 16.70 47.00 17.41 47.47
L 17.91 47.79
L 17.31 48.11
C 16.59 48.50 16.06 48.54 16.19 48.21"/>
<path fill="#ffd300" stroke="none" d="
M 9.59 21.04
L 9.09 20.83
L 12.69 17.89
C 14.93 16.06 16.25 14.87 16.19 14.72
C 16.07 14.40 16.43 14.42 17.27 14.77
L 17.97 15.06
L 17.55 15.34
C 16.89 15.78 10.84 20.74 10.62 21.02
C 10.38 21.32 10.26 21.33 9.59 21.04"/>
<path fill="#00f1fd" stroke="none" d="
M 39.16 46.58
C 39.04 46.43 38.97 46.22 39.01 46.11
C 39.07 45.92 41.37 44.64 45.75 42.35
C 47.62 41.38 47.85 41.30 48.30 41.49
C 48.58 41.60 48.80 41.75 48.80 41.81
C 48.80 41.87 48.14 42.28 47.33 42.71
C 44.37 44.29 43.56 44.76 43.73 44.82
C 43.82 44.85 45.15 44.60 46.66 44.26
C 48.27 43.90 49.49 43.70 49.59 43.80
C 49.80 44.01 49.59 44.51 49.28 44.51
C 49.14 44.51 48.46 44.75 47.77 45.03
C 47.08 45.32 46.48 45.52 46.43 45.48
C 46.39 45.44 44.93 45.73 43.18 46.12
C 39.60 46.93 39.46 46.94 39.16 46.58"/>
<path fill="#00f1fd" stroke="none" d="
M 47.20 21.35
C 46.95 21.21 45.02 20.18 42.91 19.05
C 39.03 16.99 38.63 16.67 39.36 16.21
C 39.57 16.07 40.47 16.21 42.75 16.72
C 44.46 17.10 46.05 17.42 46.30 17.44
C 46.55 17.46 47.27 17.68 47.91 17.93
C 48.55 18.18 49.21 18.42 49.39 18.48
C 49.71 18.58 49.81 19.04 49.55 19.20
C 49.47 19.25 48.17 19.01 46.65 18.67
C 45.14 18.33 43.82 18.08 43.73 18.11
C 43.56 18.17 44.37 18.64 47.33 20.22
C 48.14 20.65 48.80 21.05 48.80 21.11
C 48.80 21.23 47.96 21.64 47.77 21.62
C 47.70 21.61 47.44 21.49 47.20 21.35"/>
<path fill="#009bfe" stroke="none" d="
M 48.53 45.39
C 48.41 44.82 48.61 44.52 49.12 44.52
C 49.24 44.52 49.49 44.44 49.66 44.34
C 49.83 44.25 50.46 43.94 51.05 43.65
C 51.65 43.37 52.68 42.77 53.35 42.32
C 54.48 41.56 54.58 41.53 54.87 41.81
C 55.04 41.97 55.15 42.16 55.12 42.22
C 55.05 42.36 48.93 45.94 48.76 45.94
C 48.70 45.94 48.60 45.69 48.53 45.39"/>
<path fill="#009bfe" stroke="none" d="
M 39.25 36.61
C 39.10 36.39 38.97 36.16 38.97 36.09
C 38.97 36.02 39.39 35.91 39.91 35.85
C 40.43 35.78 43.50 35.24 46.75 34.65
C 49.99 34.06 52.76 33.56 52.89 33.55
C 53.27 33.51 53.58 34.09 53.32 34.35
C 53.15 34.52 40.57 36.97 39.74 37.00
C 39.62 37.00 39.40 36.83 39.25 36.61"/>
<path fill="#009bfe" stroke="none" d="
M 52.72 29.42
C 52.62 29.32 41.32 27.26 39.91 27.08
C 39.39 27.01 38.97 26.90 38.97 26.82
C 38.97 26.74 39.12 26.50 39.29 26.28
L 39.61 25.89
L 46.36 27.13
C 50.07 27.81 53.21 28.46 53.32 28.58
C 53.47 28.73 53.48 28.88 53.35 29.09
C 53.15 29.41 52.86 29.56 52.72 29.42"/>
<path fill="#009bfe" stroke="none" d="
M 53.36 20.61
C 51.90 19.64 49.93 18.64 48.83 18.32
C 48.47 18.22 48.43 18.12 48.52 17.65
C 48.58 17.35 48.67 17.06 48.71 17.02
C 48.80 16.93 55.01 20.51 55.12 20.71
C 55.15 20.77 55.04 20.96 54.87 21.12
C 54.58 21.40 54.48 21.37 53.36 20.61"/>
<path fill="#3af400" stroke="none" d="
M 29.00 44.97
C 28.77 44.84 28.49 44.62 28.37 44.48
C 28.25 44.33 27.05 43.26 25.70 42.10
C 24.35 40.94 23.24 39.93 23.24 39.86
C 23.24 39.79 23.37 39.68 23.52 39.62
C 23.94 39.46 24.67 39.49 24.67 39.66
C 24.67 39.85 29.64 44.21 30.20 44.51
C 30.51 44.68 30.55 44.77 30.38 44.97
C 30.13 45.28 29.56 45.28 29.00 44.97"/>
<path fill="#3af400" stroke="none" d="
M 23.06 23.35
C 23.06 23.15 26.71 19.84 28.29 18.62
C 28.61 18.36 29.50 18.47 29.50 18.76
C 29.50 19.07 24.48 23.27 23.91 23.43
C 23.15 23.65 23.06 23.64 23.06 23.35"/>
<path fill="#3af400" stroke="none" d="
M 33.61 20.29
C 33.61 20.24 33.65 20.20 33.70 20.20
C 33.75 20.20 33.79 20.24 33.79 20.29
C 33.79 20.34 33.75 20.38 33.70 20.38
C 33.65 20.38 33.61 20.34 33.61 20.29"/>
<path fill="#1f21ff" stroke="none" d="
M 49.62 43.85
C 49.51 43.56 49.91 43.08 50.27 43.08
C 50.50 43.08 50.44 43.40 50.19 43.50
C 50.06 43.56 50.09 43.60 50.28 43.61
C 50.67 43.62 50.69 43.90 50.31 44.05
C 49.87 44.22 49.75 44.18 49.62 43.85"/>
<path fill="#1f21ff" stroke="none" d="
M 52.46 41.64
C 52.39 41.53 52.43 41.35 52.54 41.24
C 53.04 40.75 52.68 40.68 51.44 41.05
C 51.27 41.10 51.13 41.06 51.13 40.95
C 51.13 40.75 53.09 39.57 53.31 39.64
C 53.37 39.66 53.76 39.56 54.16 39.42
C 54.84 39.18 54.92 39.19 55.23 39.50
C 55.56 39.82 55.55 39.84 55.09 40.27
C 54.47 40.84 52.99 41.83 52.76 41.83
C 52.66 41.83 52.53 41.74 52.46 41.64"/>
<path fill="#1f21ff" stroke="none" d="
M 54.35 23.57
C 54.10 23.47 53.73 23.37 53.52 23.35
C 53.01 23.29 51.13 22.21 51.13 21.97
C 51.13 21.87 51.27 21.83 51.44 21.88
C 52.36 22.15 52.74 22.19 52.74 22.02
C 52.74 21.92 52.66 21.78 52.56 21.72
C 52.30 21.56 52.34 21.28 52.64 21.16
C 52.90 21.06 54.25 21.88 55.09 22.66
C 55.55 23.09 55.56 23.10 55.22 23.44
C 55.04 23.62 54.86 23.77 54.84 23.77
C 54.81 23.76 54.59 23.67 54.35 23.57"/>
<path fill="#1f21ff" stroke="none" d="
M 49.83 19.65
C 49.48 19.45 49.46 19.33 49.68 18.97
C 49.78 18.82 49.97 18.78 50.21 18.85
C 50.67 19.00 50.71 19.30 50.28 19.32
C 50.09 19.33 50.06 19.37 50.19 19.43
C 50.43 19.52 50.50 19.85 50.28 19.84
C 50.21 19.83 50.00 19.75 49.83 19.65"/>
<path fill="#1f2cfe" stroke="none" d="
M 50.65 43.68
C 50.72 43.61 50.82 43.61 50.89 43.68
C 50.96 43.75 50.90 43.80 50.77 43.80
C 50.64 43.80 50.59 43.75 50.65 43.68"/>
<path fill="#1f2cfe" stroke="none" d="
M 50.65 19.19
C 50.72 19.12 50.82 19.12 50.89 19.19
C 50.96 19.25 50.90 19.31 50.77 19.31
C 50.64 19.31 50.59 19.25 50.65 19.19"/>
<path fill="#1f10fe" stroke="none" d="
M 50.23 43.44
C 50.38 43.35 50.50 43.20 50.50 43.11
C 50.50 42.85 51.42 42.18 51.58 42.33
C 51.66 42.40 51.67 42.37 51.61 42.25
C 51.43 41.94 52.23 41.49 52.57 41.71
C 52.79 41.84 53.11 41.71 53.92 41.17
C 54.50 40.77 55.13 40.28 55.31 40.07
C 55.50 39.86 55.73 39.69 55.82 39.69
C 55.91 39.69 56.19 39.53 56.44 39.33
C 56.94 38.94 57.27 39.06 57.43 39.67
C 57.54 40.09 55.34 42.36 55.20 41.98
C 55.07 41.64 55.36 40.95 55.68 40.83
C 56.03 40.69 56.04 40.40 55.70 40.40
C 55.56 40.40 55.22 40.67 54.94 41.01
C 54.66 41.34 53.74 42.06 52.89 42.62
C 51.68 43.40 51.19 43.62 50.65 43.62
C 50.15 43.61 50.04 43.57 50.23 43.44
M 55.69 41.30
C 55.75 41.20 55.76 41.12 55.71 41.12
C 55.66 41.12 55.57 41.20 55.51 41.30
C 55.45 41.39 55.44 41.47 55.49 41.47
C 55.54 41.47 55.63 41.39 55.69 41.30"/>
<path fill="#1f10fe" stroke="none" d="
M 49.61 41.12
C 49.44 40.93 49.34 40.67 49.39 40.53
C 49.44 40.40 50.90 39.45 52.62 38.42
C 54.95 37.04 55.74 36.49 55.68 36.28
C 55.55 35.86 56.43 35.49 56.82 35.78
C 57.89 36.58 58.03 37.02 57.22 37.08
C 56.84 37.10 53.09 39.32 53.09 39.52
C 53.09 39.61 52.76 39.85 52.36 40.06
C 51.95 40.26 51.45 40.61 51.24 40.84
C 50.68 41.43 50.00 41.55 49.61 41.12"/>
<path fill="#1f10fe" stroke="none" d="
M 56.00 27.13
C 55.75 27.01 55.62 26.83 55.68 26.65
C 55.74 26.44 54.96 25.89 52.62 24.50
C 50.90 23.48 49.44 22.53 49.39 22.40
C 49.34 22.26 49.44 22.00 49.61 21.81
C 50.00 21.38 50.68 21.50 51.24 22.09
C 51.45 22.31 51.95 22.66 52.36 22.87
C 52.76 23.08 53.09 23.32 53.09 23.40
C 53.09 23.60 56.84 25.83 57.22 25.85
C 57.93 25.90 57.95 26.14 57.29 26.75
C 56.56 27.41 56.57 27.41 56.00 27.13"/>
<path fill="#1f10fe" stroke="none" d="
M 56.44 23.60
C 56.19 23.40 55.91 23.24 55.82 23.24
C 55.73 23.24 55.50 23.07 55.31 22.86
C 55.13 22.65 54.50 22.16 53.92 21.76
C 53.11 21.21 52.79 21.09 52.57 21.22
C 52.23 21.44 51.43 20.99 51.61 20.67
C 51.67 20.56 51.66 20.53 51.58 20.60
C 51.42 20.74 50.50 20.08 50.50 19.82
C 50.50 19.73 50.38 19.58 50.23 19.48
C 50.04 19.36 50.15 19.31 50.65 19.31
C 51.19 19.31 51.68 19.53 52.89 20.31
C 53.74 20.86 54.66 21.59 54.94 21.92
C 55.22 22.25 55.56 22.53 55.70 22.53
C 56.04 22.53 56.03 22.23 55.68 22.10
C 55.36 21.98 55.07 21.28 55.20 20.95
C 55.34 20.57 57.54 22.84 57.43 23.25
C 57.27 23.87 56.94 23.99 56.44 23.60
M 55.78 21.73
C 55.78 21.69 55.68 21.60 55.57 21.52
C 55.44 21.45 55.41 21.48 55.49 21.60
C 55.62 21.81 55.78 21.88 55.78 21.73"/>
<path fill="#1f17fb" stroke="none" d="
M 50.41 43.17
C 50.41 43.12 50.45 43.08 50.50 43.08
C 50.55 43.08 50.59 43.12 50.59 43.17
C 50.59 43.22 50.55 43.26 50.50 43.26
C 50.45 43.26 50.41 43.22 50.41 43.17"/>
<path fill="#1f17fb" stroke="none" d="
M 50.41 19.75
C 50.41 19.70 50.45 19.66 50.50 19.66
C 50.55 19.66 50.59 19.70 50.59 19.75
C 50.59 19.80 50.55 19.84 50.50 19.84
C 50.45 19.84 50.41 19.80 50.41 19.75"/>
<path fill="#ff6000" stroke="none" d="
M 3.16 42.58
C 2.72 42.09 2.79 41.91 3.53 41.69
C 4.22 41.48 7.35 41.00 8.71 40.90
C 9.37 40.85 9.47 40.89 9.56 41.27
C 9.62 41.50 9.62 41.75 9.56 41.81
C 9.44 41.93 7.23 42.28 5.31 42.48
C 4.65 42.54 4.06 42.67 4.01 42.75
C 3.85 43.00 3.47 42.93 3.16 42.58"/>
<path fill="#ff6000" stroke="none" d="
M 8.67 22.03
C 7.44 21.95 4.23 21.46 3.53 21.24
C 2.78 21.01 2.69 20.76 3.22 20.29
C 3.51 20.03 3.66 20.00 3.98 20.16
C 4.20 20.26 4.86 20.40 5.45 20.47
C 7.91 20.73 9.54 21.02 9.60 21.20
C 9.64 21.31 9.60 21.55 9.52 21.74
C 9.41 22.01 9.23 22.07 8.67 22.03"/>
<path fill="#1f1eec" stroke="none" d="
M 51.49 42.28
C 51.49 42.23 51.53 42.19 51.58 42.19
C 51.62 42.19 51.66 42.23 51.66 42.28
C 51.66 42.33 51.62 42.37 51.58 42.37
C 51.53 42.37 51.49 42.33 51.49 42.28"/>
<path fill="#1f1eec" stroke="none" d="
M 51.49 20.65
C 51.49 20.60 51.53 20.56 51.58 20.56
C 51.62 20.56 51.66 20.60 51.66 20.65
C 51.66 20.70 51.62 20.74 51.58 20.74
C 51.53 20.74 51.49 20.70 51.49 20.65"/>
<path fill="#210fff" stroke="none" d="
M 54.82 41.89
C 54.65 41.72 54.68 41.47 54.86 41.47
C 54.95 41.47 55.07 41.60 55.13 41.74
C 55.23 42.01 55.04 42.11 54.82 41.89"/>
<path fill="#210fff" stroke="none" d="
M 54.75 21.24
C 54.78 21.12 54.91 21.00 55.03 20.96
C 55.16 20.91 55.20 20.99 55.13 21.17
C 55.01 21.49 54.64 21.56 54.75 21.24"/>
<path fill="#ff1900" stroke="none" d="
M 1.46 37.04
C 0.59 34.17 0.00 31.93 0.00 31.46
C 0.00 30.50 2.83 21.09 3.12 21.09
C 3.24 21.09 3.46 21.20 3.61 21.32
C 3.87 21.52 3.75 22.02 2.49 26.10
C 1.62 28.92 1.09 30.96 1.09 31.46
C 1.09 31.96 1.62 34.00 2.49 36.83
C 3.75 40.91 3.87 41.41 3.61 41.61
C 3.46 41.73 3.24 41.83 3.12 41.83
C 3.01 41.83 2.26 39.67 1.46 37.04"/>
<path fill="#f1ff00" stroke="none" d="
M 9.58 41.37
C 9.51 41.10 9.52 40.83 9.60 40.76
C 9.73 40.65 21.75 38.78 22.29 38.79
C 22.53 38.79 22.97 39.48 22.83 39.62
C 22.78 39.67 19.94 40.14 16.51 40.67
C 13.08 41.19 10.15 41.68 9.99 41.74
C 9.78 41.82 9.66 41.72 9.58 41.37"/>
<path fill="#f1ff00" stroke="none" d="
M 15.61 23.18
C 12.35 22.67 9.63 22.21 9.57 22.14
C 9.51 22.08 9.51 21.82 9.58 21.55
C 9.66 21.20 9.78 21.10 9.99 21.19
C 10.15 21.25 13.13 21.74 16.62 22.28
C 20.10 22.81 22.99 23.29 23.04 23.33
C 23.23 23.53 22.43 24.13 22.01 24.12
C 21.75 24.11 18.87 23.68 15.61 23.18"/>
<path fill="#2103ff" stroke="none" d="
M 55.06 41.47
C 55.06 41.34 55.12 41.29 55.18 41.36
C 55.25 41.42 55.25 41.53 55.18 41.59
C 55.12 41.66 55.06 41.61 55.06 41.47"/>
<path fill="#2103ff" stroke="none" d="
M 55.06 21.45
C 55.06 21.32 55.12 21.27 55.18 21.33
C 55.25 21.40 55.25 21.51 55.18 21.57
C 55.12 21.64 55.06 21.58 55.06 21.45"/>
<path fill="#2104ff" stroke="none" d="
M 54.70 41.32
C 54.70 41.22 54.78 41.09 54.88 41.03
C 54.98 40.97 55.06 41.00 55.06 41.10
C 55.06 41.19 54.98 41.32 54.88 41.39
C 54.78 41.45 54.70 41.42 54.70 41.32"/>
<path fill="#2104ff" stroke="none" d="
M 54.82 21.87
C 54.76 21.80 54.70 21.67 54.70 21.57
C 54.70 21.45 54.79 21.47 54.91 21.59
C 55.03 21.71 55.08 21.85 55.03 21.90
C 54.98 21.95 54.89 21.94 54.82 21.87"/>
<path fill="#2309ff" stroke="none" d="
M 54.88 41.39
C 54.88 41.34 54.92 41.30 54.97 41.30
C 55.02 41.30 55.06 41.34 55.06 41.39
C 55.06 41.44 55.02 41.47 54.97 41.47
C 54.92 41.47 54.88 41.44 54.88 41.39"/>
<path fill="#2309ff" stroke="none" d="
M 54.88 21.54
C 54.88 21.49 54.92 21.45 54.97 21.45
C 55.02 21.45 55.06 21.49 55.06 21.54
C 55.06 21.59 55.02 21.63 54.97 21.63
C 54.92 21.63 54.88 21.59 54.88 21.54"/>
<path fill="#2300ff" stroke="none" d="
M 55.51 41.30
C 55.57 41.20 55.66 41.12 55.71 41.12
C 55.76 41.12 55.75 41.20 55.69 41.30
C 55.63 41.39 55.54 41.47 55.49 41.47
C 55.44 41.47 55.45 41.39 55.51 41.30"/>
<path fill="#2300ff" stroke="none" d="
M 55.06 41.05
C 55.06 40.88 55.18 40.70 55.34 40.64
C 55.77 40.48 55.81 40.67 55.42 41.03
C 55.09 41.32 55.06 41.32 55.06 41.05"/>
<path fill="#2300ff" stroke="none" d="
M 54.23 35.45
C 53.89 35.39 53.14 34.55 53.30 34.42
C 53.34 34.40 53.61 34.33 53.90 34.27
C 54.36 34.19 54.49 34.25 54.72 34.65
C 54.98 35.11 54.99 35.60 54.73 35.55
C 54.67 35.54 54.44 35.49 54.23 35.45"/>
<path fill="#2300ff" stroke="none" d="
M 53.77 28.65
C 53.19 28.57 53.17 28.47 53.59 27.96
C 53.96 27.50 54.82 27.25 54.93 27.57
C 55.00 27.80 54.51 28.80 54.35 28.75
C 54.30 28.74 54.04 28.69 53.77 28.65"/>
<path fill="#2300ff" stroke="none" d="
M 55.12 22.07
C 54.96 21.64 55.15 21.60 55.51 21.99
C 55.80 22.31 55.81 22.35 55.53 22.35
C 55.37 22.35 55.18 22.22 55.12 22.07"/>
<path fill="#2300ff" stroke="none" d="
M 55.49 21.60
C 55.41 21.48 55.44 21.45 55.57 21.52
C 55.68 21.60 55.78 21.69 55.78 21.73
C 55.78 21.88 55.62 21.81 55.49 21.60"/>
<path fill="#2106ff" stroke="none" d="
M 55.60 40.58
C 55.37 40.43 55.37 40.41 55.64 40.41
C 55.81 40.40 55.96 40.48 55.96 40.58
C 55.96 40.80 55.94 40.80 55.60 40.58"/>
<path fill="#2106ff" stroke="none" d="
M 55.42 22.46
C 55.42 22.42 55.54 22.34 55.69 22.28
C 55.83 22.22 55.96 22.26 55.96 22.35
C 55.96 22.45 55.83 22.53 55.69 22.53
C 55.54 22.53 55.42 22.49 55.42 22.46"/>
<path fill="#0660f8" stroke="none" d="
M 45.17 39.64
C 44.07 39.27 44.65 38.93 49.52 37.14
C 52.13 36.19 54.39 35.44 54.55 35.49
C 54.83 35.58 55.14 36.09 55.00 36.23
C 54.97 36.27 53.06 36.98 50.75 37.82
C 48.45 38.67 46.37 39.45 46.12 39.58
C 45.80 39.73 45.51 39.75 45.17 39.64"/>
<path fill="#0660f8" stroke="none" d="
M 49.43 25.77
C 44.62 23.98 44.08 23.67 45.20 23.28
C 45.49 23.18 45.80 23.16 45.88 23.24
C 46.00 23.35 51.08 25.25 54.57 26.50
C 54.84 26.59 55.06 26.74 55.06 26.82
C 55.06 27.05 54.52 27.53 54.29 27.51
C 54.17 27.50 51.99 26.72 49.43 25.77"/>
<path fill="#4400ff" stroke="none" d="
M 57.39 39.64
C 57.39 39.10 56.93 38.95 56.44 39.33
C 56.19 39.53 55.82 39.69 55.61 39.69
C 55.15 39.69 54.91 39.18 55.26 38.97
C 55.40 38.89 56.04 38.36 56.69 37.79
C 57.72 36.88 57.83 36.71 57.61 36.49
C 57.38 36.26 57.41 36.20 57.81 35.99
C 58.34 35.71 58.39 35.53 58.03 35.24
C 57.84 35.08 57.51 35.16 56.57 35.58
C 55.26 36.17 54.83 36.16 54.91 35.54
C 54.96 35.23 55.30 35.00 56.42 34.51
C 57.21 34.16 58.13 33.78 58.46 33.66
C 59.63 33.22 58.82 33.23 57.00 33.67
C 55.98 33.91 54.79 34.16 54.35 34.22
C 53.62 34.32 53.52 34.29 53.35 33.91
C 53.15 33.48 53.16 33.48 55.49 32.98
C 56.78 32.71 57.91 32.41 58.00 32.33
C 58.10 32.25 56.95 32.18 55.41 32.18
L 52.64 32.18
L 52.64 31.46
L 52.64 30.75
L 55.41 30.75
C 56.95 30.75 58.10 30.68 58.00 30.60
C 57.91 30.51 56.78 30.22 55.49 29.94
C 53.16 29.45 53.15 29.45 53.35 29.02
C 53.52 28.64 53.62 28.61 54.35 28.71
C 54.79 28.77 55.98 29.01 57.00 29.26
C 58.82 29.70 59.63 29.70 58.46 29.27
C 58.13 29.15 57.21 28.77 56.42 28.42
C 55.30 27.93 54.96 27.70 54.91 27.39
C 54.83 26.77 55.26 26.76 56.57 27.35
C 57.51 27.77 57.84 27.85 58.03 27.69
C 58.39 27.39 58.34 27.22 57.81 26.94
C 57.41 26.73 57.38 26.67 57.61 26.44
C 57.83 26.21 57.72 26.05 56.69 25.14
C 56.04 24.57 55.40 24.04 55.26 23.96
C 54.91 23.75 55.15 23.24 55.61 23.24
C 55.82 23.24 56.19 23.40 56.44 23.60
C 56.93 23.98 57.39 23.83 57.39 23.29
C 57.39 23.15 57.46 23.06 57.54 23.09
C 57.62 23.12 58.55 24.05 59.60 25.15
L 61.52 27.15
L 61.16 27.51
L 60.80 27.87
L 61.17 28.71
C 61.51 29.49 61.52 29.56 61.23 29.72
C 61.07 29.81 60.79 30.22 60.62 30.63
C 60.33 31.30 60.32 31.45 60.56 32.14
C 60.70 32.56 60.98 33.01 61.17 33.15
C 61.53 33.40 61.53 33.40 61.16 34.23
L 60.80 35.05
L 61.16 35.41
L 61.52 35.77
L 59.60 37.78
C 58.55 38.88 57.62 39.80 57.54 39.84
C 57.46 39.87 57.39 39.78 57.39 39.64"/>
<path fill="#00ff30" stroke="none" d="
M 22.81 39.36
L 22.55 38.86
L 23.39 38.65
C 23.85 38.53 27.52 37.91 31.55 37.27
L 38.88 36.10
L 39.18 36.51
C 39.57 37.02 39.47 37.07 37.63 37.35
C 36.84 37.47 34.23 37.89 31.82 38.27
C 29.41 38.66 26.64 39.10 25.65 39.26
C 24.67 39.41 23.69 39.61 23.47 39.70
C 23.13 39.83 23.02 39.78 22.81 39.36"/>
<path fill="#00ff30" stroke="none" d="
M 31.37 25.63
C 27.54 25.00 24.22 24.52 24.01 24.55
C 23.79 24.59 23.65 24.55 23.70 24.47
C 23.76 24.38 23.61 24.31 23.39 24.31
C 22.77 24.31 22.44 24.06 22.74 23.83
C 23.11 23.54 24.55 23.24 24.75 23.41
C 24.86 23.50 25.74 23.69 26.73 23.84
C 29.92 24.33 38.69 25.74 39.11 25.84
C 39.49 25.93 39.50 25.95 39.22 26.37
C 39.06 26.62 38.80 26.81 38.64 26.80
C 38.48 26.79 35.21 26.26 31.37 25.63"/>
<path fill="#00fff3" stroke="none" d="
M 42.18 39.36
C 42.03 39.20 41.41 38.61 40.81 38.05
C 39.81 37.13 39.74 37.03 40.10 36.94
C 40.76 36.76 41.10 36.81 41.44 37.14
C 41.61 37.31 42.23 37.88 42.80 38.40
C 43.38 38.92 43.81 39.37 43.78 39.40
C 43.74 39.44 43.43 39.50 43.08 39.56
C 42.64 39.63 42.38 39.57 42.18 39.36"/>
<path fill="#00fff3" stroke="none" d="
M 39.96 25.94
C 39.65 25.82 39.65 25.78 39.90 25.64
C 40.06 25.55 40.72 24.98 41.36 24.37
C 42.44 23.34 42.57 23.27 43.16 23.36
C 43.83 23.47 43.97 23.66 43.55 23.90
C 43.41 23.98 42.80 24.51 42.20 25.07
C 41.12 26.09 40.74 26.24 39.96 25.94"/>
<path fill="#00ffc8" stroke="none" d="
M 38.73 34.18
C 38.47 33.21 38.26 32.36 38.26 32.30
C 38.26 32.23 38.49 32.18 38.77 32.18
C 39.26 32.18 39.29 32.23 39.75 33.91
C 40.23 35.70 40.20 35.92 39.49 35.93
C 39.28 35.93 39.08 35.48 38.73 34.18"/>
<path fill="#00ffc8" stroke="none" d="
M 38.26 30.63
C 38.26 30.56 38.47 29.72 38.73 28.75
C 39.08 27.45 39.28 26.99 39.49 27.00
C 40.20 27.00 40.23 27.22 39.75 29.01
C 39.29 30.69 39.26 30.75 38.77 30.75
C 38.49 30.75 38.26 30.69 38.26 30.63"/>
<path fill="#d800ff" stroke="none" d="
M 61.15 35.41
C 60.81 35.07 60.81 35.06 61.15 34.39
C 61.58 33.55 61.58 33.39 61.16 33.13
C 60.98 33.01 60.71 32.57 60.56 32.14
C 60.32 31.44 60.33 31.31 60.62 30.61
C 60.80 30.19 61.07 29.80 61.22 29.74
C 61.58 29.61 61.57 29.36 61.17 28.58
C 60.81 27.87 60.84 27.61 61.33 27.35
C 61.62 27.19 61.78 27.34 62.54 28.47
C 64.48 31.36 64.48 31.57 62.54 34.46
C 62.06 35.17 61.63 35.75 61.58 35.75
C 61.53 35.75 61.34 35.60 61.15 35.41"/>
<path fill="#d200ff" stroke="none" d="
M 60.96 34.59
C 60.96 34.54 61.00 34.50 61.05 34.50
C 61.10 34.50 61.14 34.54 61.14 34.59
C 61.14 34.64 61.10 34.68 61.05 34.68
C 61.00 34.68 60.96 34.64 60.96 34.59"/>
<path fill="#d200ff" stroke="none" d="
M 60.96 28.34
C 60.96 28.29 61.00 28.25 61.05 28.25
C 61.10 28.25 61.14 28.29 61.14 28.34
C 61.14 28.39 61.10 28.42 61.05 28.42
C 61.00 28.42 60.96 28.39 60.96 28.34"/>
<path fill="#cd00fd" stroke="none" d="
M 61.14 34.23
C 61.14 34.18 61.18 34.15 61.23 34.15
C 61.28 34.15 61.32 34.18 61.32 34.23
C 61.32 34.28 61.28 34.32 61.23 34.32
C 61.18 34.32 61.14 34.28 61.14 34.23"/>
<path fill="#cd00fd" stroke="none" d="
M 61.14 28.69
C 61.14 28.64 61.18 28.60 61.23 28.60
C 61.28 28.60 61.32 28.64 61.32 28.69
C 61.32 28.74 61.28 28.78 61.23 28.78
C 61.18 28.78 61.14 28.74 61.14 28.69"/>
<path fill="#c800ff" stroke="none" d="
M 61.32 33.70
C 61.32 33.65 61.36 33.61 61.41 33.61
C 61.46 33.61 61.50 33.65 61.50 33.70
C 61.50 33.75 61.46 33.79 61.41 33.79
C 61.36 33.79 61.32 33.75 61.32 33.70"/>
<path fill="#c800ff" stroke="none" d="
M 61.32 29.23
C 61.32 29.18 61.36 29.14 61.41 29.14
C 61.46 29.14 61.50 29.18 61.50 29.23
C 61.50 29.28 61.46 29.32 61.41 29.32
C 61.36 29.32 61.32 29.28 61.32 29.23"/>
<path fill="#1f06ff" stroke="none" d="
M 52.74 33.21
C 52.73 33.08 52.68 32.80 52.62 32.58
C 52.53 32.23 52.58 32.18 53.07 32.18
C 53.40 32.18 53.63 32.27 53.63 32.40
C 53.63 32.53 53.68 32.81 53.74 33.03
C 53.84 33.38 53.79 33.43 53.30 33.43
C 52.97 33.43 52.74 33.34 52.74 33.21"/>
<path fill="#1f06ff" stroke="none" d="
M 52.62 30.35
C 52.68 30.12 52.73 29.84 52.74 29.72
C 52.74 29.59 52.97 29.50 53.30 29.50
C 53.79 29.50 53.84 29.55 53.74 29.90
C 53.68 30.12 53.63 30.40 53.63 30.53
C 53.63 30.66 53.40 30.75 53.07 30.75
C 52.58 30.75 52.53 30.70 52.62 30.35"/>
<path fill="#ff3200" stroke="none" d="
M 1.07 31.46
L 1.07 30.75
L 3.40 30.75
L 5.72 30.75
L 5.72 31.46
L 5.72 32.18
L 3.40 32.18
L 1.07 32.18
L 1.07 31.46"/>
<path fill="#00ff14" stroke="none" d="
M 20.56 31.46
L 20.56 30.75
L 29.41 30.75
L 38.26 30.75
L 38.26 31.46
L 38.26 32.18
L 29.41 32.18
L 20.56 32.18
L 20.56 31.46"/>
</g>
</svg>
