<?xml version="1.0" encoding="UTF-8" standalone="no"?>
<!DOCTYPE svg PUBLIC "-//W3C//DTD SVG 1.1//EN"
"http://www.w3.org/Graphics/SVG/1.1/DTD/svg11.dtd">
<svg width="024px" height="024px"
xmlns="http://www.w3.org/2000/svg" version="1.1">
<g transform="translate(0000, 0000) scale(1.0000, 1.0000)">
<path fill="#000000" stroke="none" d="
M 3.77 16.32
C 2.25 15.94 0.70 14.60 0.25 13.29
C -0.34 11.56 0.05 9.82 1.31 8.53
C 2.70 7.11 3.02 7.02 7.18 6.96
C 10.09 6.91 10.92 6.94 11.71 7.15
C 12.24 7.28 12.79 7.50 12.93 7.62
C 13.07 7.74 13.24 7.85 13.33 7.85
C 13.56 7.85 14.52 8.94 14.90 9.65
C 15.38 10.54 15.49 11.66 15.17 12.28
C 14.47 13.63 12.97 13.16 12.62 11.48
C 12.29 9.87 11.80 9.69 7.80 9.69
C 4.12 9.69 3.36 9.86 2.99 10.75
C 2.71 11.41 2.71 11.98 2.99 12.64
C 3.31 13.41 4.22 13.69 6.41 13.69
L 8.12 13.69
L 8.38 14.35
C 8.52 14.71 8.88 15.25 9.18 15.56
C 9.48 15.87 9.68 16.20 9.62 16.29
C 9.50 16.49 4.53 16.50 3.77 16.32"/>
<path fill="#000000" stroke="none" d="
M 12.16 16.22
C 11.70 16.09 11.21 15.89 11.07 15.76
C 10.93 15.64 10.76 15.54 10.67 15.54
C 10.44 15.54 9.48 14.44 9.10 13.74
C 8.62 12.84 8.51 11.73 8.83 11.11
C 9.53 9.75 11.03 10.22 11.38 11.91
C 11.71 13.51 12.20 13.69 16.20 13.69
C 19.88 13.69 20.64 13.53 21.01 12.64
C 21.29 11.98 21.29 11.41 21.01 10.75
C 20.69 9.97 19.78 9.69 17.59 9.69
L 15.88 9.69
L 15.62 9.04
C 15.48 8.68 15.11 8.12 14.80 7.81
C 14.40 7.39 14.29 7.18 14.41 7.06
C 14.53 6.95 15.51 6.91 17.48 6.96
C 20.90 7.03 21.36 7.17 22.69 8.53
C 23.63 9.49 24.00 10.39 24.00 11.69
C 24.00 12.99 23.63 13.90 22.69 14.86
C 21.29 16.29 21.00 16.37 16.69 16.41
C 13.78 16.44 12.82 16.40 12.16 16.22"/>
</g>
</svg>
